<svg width="15" height="21" viewBox="0 0 15 21" fill="none" xmlns="http://www.w3.org/2000/svg">
<path d="M7.56835 4.60217C6.08837 4.60217 4.88376 5.80679 4.88376 7.28676C4.88376 8.76674 6.08837 9.97135 7.56835 9.97135C9.04832 9.97135 10.2529 8.76674 10.2529 7.28676C10.2529 5.80679 9.04832 4.60217 7.56835 4.60217ZM7.56835 9.20432C6.511 9.20432 5.65078 8.3441 5.65078 7.28676C5.65078 6.22942 6.511 5.3692 7.56835 5.3692C8.62569 5.3692 9.48591 6.22942 9.48591 7.28676C9.48591 8.3441 8.62569 9.20432 7.56835 9.20432Z" fill="white"/>
<path d="M12.5552 2.15419C11.1661 0.765108 9.31914 0 7.35479 0C5.39006 0 3.54344 0.765108 2.15436 2.15419C-0.416323 4.72449 -0.735789 9.56059 1.4625 12.4906L7.35479 21L13.2383 12.5025C15.4454 9.56059 15.1259 4.72449 12.5552 2.15419ZM12.6162 12.0542L7.35479 19.6523L2.08495 12.0423C0.0910644 9.38379 0.376781 5.01634 2.69703 2.69648C3.94115 1.45236 5.59523 0.767025 7.35479 0.767025C9.11434 0.767025 10.7684 1.45236 12.0129 2.69648C14.3332 5.01634 14.6189 9.38379 12.6162 12.0542Z" fill="white"/>
</svg>
